<svg width="125" height="32" viewBox="0 0 125 32" fill="none" xmlns="http://www.w3.org/2000/svg">
<path d="M116.697 -1.80703e-05H7.59131C7.29935 -1.80703e-05 7.01089 -1.80702e-05 6.71971 0.00158193C6.47596 0.00318193 6.23415 0.00782993 5.98806 0.0117419C5.45343 0.0180634 4.92007 0.0653229 4.3926 0.15311C3.86586 0.242808 3.35563 0.411915 2.87916 0.65471C2.40326 0.899559 1.96843 1.21772 1.59042 1.59764C1.21043 1.97649 0.893681 2.4144 0.652349 2.89451C0.410351 3.37367 0.242548 3.88713 0.154737 4.41717C0.0660915 4.94653 0.0183904 5.482 0.0120621 6.01877C0.00467357 6.26405 0.00389331 6.51014 0 6.75545V25.2469C0.00389331 25.4953 0.00467357 25.7359 0.0120541 25.9844C0.0183844 26.5211 0.0660855 27.0566 0.154729 27.5859C0.242298 28.1162 0.41011 28.63 0.652341 29.1093C0.893566 29.5879 1.21036 30.024 1.59042 30.4008C1.96699 30.7824 2.40211 31.1008 2.87916 31.3437C3.35563 31.5872 3.8658 31.7573 4.3926 31.8484C4.92016 31.9355 5.45347 31.9827 5.98806 31.9898C6.23415 31.9953 6.47596 31.9984 6.71971 31.9984C7.01088 32 7.29936 32 7.59131 32H116.697C116.983 32 117.274 32 117.56 31.9984C117.802 31.9984 118.051 31.9953 118.294 31.9898C118.827 31.9831 119.36 31.9358 119.886 31.8484C120.415 31.7567 120.927 31.5866 121.406 31.3437C121.882 31.1006 122.317 30.7823 122.693 30.4008C123.072 30.0226 123.39 29.5867 123.634 29.1093C123.874 28.6297 124.04 28.1159 124.127 27.5859C124.216 27.0565 124.265 26.5212 124.275 25.9844C124.278 25.7359 124.278 25.4953 124.278 25.2469C124.284 24.9562 124.284 24.6672 124.284 24.3718V7.62889C124.284 7.33592 124.284 7.04529 124.278 6.75545C124.278 6.51014 124.278 6.26405 124.275 6.01873C124.265 5.48192 124.216 4.94657 124.127 4.41713C124.04 3.88741 123.874 3.37398 123.634 2.89448C123.142 1.93214 122.363 1.1488 121.406 0.654638C120.927 0.412436 120.415 0.243374 119.886 0.153038C119.36 0.0648642 118.828 0.0175881 118.294 0.0116299C118.051 0.00772593 117.802 0.00303793 117.56 0.00147793C117.274 -0.00012207 116.983 -0.00012207 116.697 -0.00012207V-1.80703e-05Z" fill="#A6A6A6"/>
<path d="M6.72383 31.3C6.48125 31.3 6.24449 31.2968 6.00386 31.2914C5.50527 31.2849 5.00786 31.2413 4.51569 31.1609C4.05676 31.0815 3.61219 30.9338 3.19663 30.7226C2.78488 30.5132 2.40933 30.2386 2.08437 29.9093C1.7547 29.5839 1.48024 29.2065 1.27186 28.7921C1.06118 28.375 0.915378 27.9279 0.839532 27.4664C0.757625 26.9704 0.713309 26.469 0.706969 25.9664C0.701921 25.7976 0.695312 25.2359 0.695312 25.2359V6.75542C0.695312 6.75542 0.702351 6.2023 0.707008 6.03979C0.71308 5.53794 0.757137 5.03727 0.8388 4.54214C0.914786 4.07935 1.0607 3.63095 1.27149 3.21246C1.47911 2.79831 1.75204 2.42064 2.07972 2.0941C2.40703 1.76445 2.78379 1.48843 3.19624 1.27612C3.61084 1.06563 4.05458 0.918937 4.51257 0.840967C5.00636 0.75982 5.5055 0.715948 6.00581 0.709719L6.72422 0.699951H117.556L118.283 0.710111C118.779 0.716031 119.274 0.759511 119.763 0.840183C120.225 0.919131 120.674 1.06684 121.093 1.27846C121.919 1.70634 122.592 2.38328 123.016 3.21441C123.223 3.63001 123.367 4.07476 123.442 4.53354C123.525 5.03274 123.571 5.53734 123.58 6.04331C123.583 6.26987 123.583 6.51323 123.583 6.75542C123.589 7.05542 123.589 7.34097 123.589 7.62886V24.3718C123.589 24.6624 123.589 24.946 123.583 25.232C123.583 25.4921 123.583 25.7304 123.58 25.9757C123.57 26.4727 123.525 26.9682 123.444 27.4585C123.369 27.9234 123.224 28.374 123.014 28.7945C122.804 29.2044 122.531 29.5786 122.205 29.9031C121.88 30.2341 121.504 30.5103 121.091 30.7211C120.673 30.9339 120.225 31.0821 119.763 31.1609C119.271 31.2417 118.773 31.2853 118.275 31.2914C118.041 31.2968 117.797 31.3 117.56 31.3L116.697 31.3016L6.72383 31.3Z" fill="black"/>
<path d="M19.7203 16.2405C19.7377 14.8833 20.4458 13.6297 21.5965 12.9188C20.8673 11.8723 19.6896 11.2326 18.4188 11.1927C17.0819 11.0517 15.7857 11.9966 15.1044 11.9966C14.4099 11.9966 13.361 11.2067 12.2314 11.23C10.7452 11.2783 9.39324 12.1068 8.67017 13.4123C7.13036 16.0911 8.27892 20.0279 9.75393 22.1932C10.4919 23.2535 11.3544 24.4378 12.4829 24.3958C13.5873 24.3498 13.9997 23.6883 15.3328 23.6883C16.6534 23.6883 17.0404 24.3958 18.1918 24.3691C19.3769 24.3498 20.1235 23.3041 20.8356 22.2338C21.3658 21.4783 21.7738 20.6434 22.0445 19.7598C20.6371 19.1617 19.7219 17.776 19.7203 16.2405Z" fill="white"/>
<path d="M17.5453 9.76869C18.1914 8.98933 18.5097 7.98758 18.4327 6.9762C17.4455 7.08037 16.5337 7.55442 15.8788 8.30388C15.2322 9.04333 14.9046 10.0107 14.9682 10.993C15.9686 11.0033 16.9184 10.5521 17.5453 9.76869Z" fill="white"/>
<path d="M36.7424 24.3968V17.0851H36.6942L33.714 24.321H32.5765L29.5885 17.0851H29.541V24.3968H28.1431V14.4624H29.9181L33.1176 22.3038H33.172L36.3653 14.4624H38.1466V24.3968L36.7424 24.3968Z" fill="white"/>
<path fill-rule="evenodd" clip-rule="evenodd" d="M42.007 20.2038C40.2933 20.3069 39.3276 21.0718 39.3276 22.3382C39.3283 22.9573 39.589 23.5473 40.0456 23.963C40.5023 24.3786 41.1123 24.5813 41.7255 24.521C42.6659 24.5324 43.5379 24.0282 44.0005 23.2054H44.0347V24.3968H45.4529V19.4327C45.4529 18.0077 44.3154 17.0647 42.5956 17.0647C40.9107 17.0647 39.6977 17.9936 39.6565 19.3022H41.0405C41.2174 18.6276 41.8662 18.1907 42.5543 18.2827C43.4524 18.2827 43.9803 18.7374 43.9803 19.5428V20.0936L42.007 20.2038ZM43.9803 21.1264V21.6843H43.9803C43.9607 22.1521 43.7539 22.5921 43.4068 22.9046C43.0597 23.217 42.6017 23.3753 42.1368 23.3436C41.3422 23.3436 40.8213 22.9304 40.8213 22.2968C40.8213 21.6772 41.3212 21.2921 42.2052 21.2366L43.9803 21.1264Z" fill="white"/>
<path d="M51.6663 19.646C51.5321 18.8245 50.7932 18.2438 49.9674 18.3109C48.8299 18.3109 48.0765 19.2679 48.0765 20.7757C48.0765 22.3179 48.8369 23.2468 49.9806 23.2468C50.7963 23.3289 51.5347 22.759 51.6663 21.946H53.0914C52.907 23.5034 51.5218 24.63 49.9674 24.4866C47.9116 24.4866 46.5688 23.0749 46.5688 20.7757C46.5688 18.5241 47.9116 17.0648 49.9534 17.0648C51.5193 16.9313 52.9056 18.0765 53.0782 19.646H51.6663Z" fill="white"/>
<path fill-rule="evenodd" clip-rule="evenodd" d="M58.9373 21.7116H62.7059L63.6102 24.3968H65.2336L61.6641 14.4624H60.0056L56.436 24.3968H58.0323L58.9373 21.7116ZM62.3149 20.4726H59.3276L60.8011 16.1148H60.8423L62.3149 20.4726Z" fill="white"/>
<path fill-rule="evenodd" clip-rule="evenodd" d="M69.9347 24.4725C71.744 24.4725 72.9429 23.0264 72.9429 20.7757C72.9429 18.5311 71.737 17.078 69.9075 17.078C68.9661 17.0475 68.0842 17.5395 67.6122 18.3585H67.585V17.1538H66.1528V26.7928H67.6324V23.2053H67.6667C68.1186 24.0295 68.9995 24.5217 69.9347 24.4725ZM69.5171 18.3452C70.6679 18.3452 71.4221 19.3093 71.4221 20.7757C71.4221 22.2554 70.6679 23.2124 69.5171 23.2124C68.3866 23.2124 67.6262 22.235 67.6262 20.7757C67.6262 19.3296 68.3866 18.3452 69.5171 18.3452Z" fill="white"/>
<path fill-rule="evenodd" clip-rule="evenodd" d="M77.8683 24.4725C79.6776 24.4725 80.8765 23.0264 80.8765 20.7757C80.8765 18.5311 79.6706 17.078 77.8411 17.078C76.8997 17.0475 76.0178 17.5395 75.5458 18.3585H75.5186V17.1538H74.0864V26.7928H75.566V23.2053H75.6003C76.0522 24.0295 76.9331 24.5217 77.8683 24.4725ZM77.4508 18.3452C78.6015 18.3452 79.3557 19.3093 79.3557 20.7757H79.3557C79.3557 22.2554 78.6015 23.2124 77.4508 23.2124C76.3203 23.2124 75.5598 22.235 75.5598 20.7757C75.5598 19.3296 76.3203 18.3452 77.4508 18.3452Z" fill="white"/>
<path d="M86.1201 21.6288C86.2297 22.614 87.1822 23.2608 88.4837 23.2608C89.7309 23.2608 90.6281 22.614 90.6281 21.7257C90.6281 20.9546 90.087 20.4929 88.8056 20.1764L87.5243 19.8663C85.7088 19.4257 84.866 18.5725 84.866 17.1882C84.866 15.4741 86.3526 14.2968 88.4635 14.2968C90.5527 14.2968 91.9849 15.4741 92.0331 17.1882H90.5395C90.4501 16.1968 89.6345 15.5983 88.4425 15.5983C87.2506 15.5983 86.435 16.2038 86.435 17.085C86.435 17.7874 86.9559 18.2007 88.2303 18.517L89.3196 18.7858C91.3481 19.2678 92.1909 20.0866 92.1909 21.5397C92.1909 23.3983 90.7175 24.5624 88.3741 24.5624C86.1815 24.5624 84.7011 23.4256 84.6055 21.6288L86.1201 21.6288Z" fill="white"/>
<path d="M95.3843 15.4398V17.1539H96.7551V18.3312H95.3843V22.3242C95.3843 22.9445 95.6588 23.2336 96.2614 23.2336C96.4241 23.2307 96.5866 23.2192 96.7481 23.1992V24.3695C96.4772 24.4203 96.2018 24.4434 95.9262 24.4382C94.4669 24.4382 93.8977 23.8875 93.8977 22.4828V18.3312H92.8496V17.1539H93.8977V15.4398H95.3843Z" fill="white"/>
<path fill-rule="evenodd" clip-rule="evenodd" d="M100.967 17.0648C98.8841 17.0648 97.5483 18.4969 97.5483 20.7758C97.5483 23.0609 98.8709 24.4867 100.967 24.4867C103.064 24.4867 104.387 23.0609 104.387 20.7758C104.387 18.4968 103.057 17.0648 100.967 17.0648ZM100.967 18.2898C102.166 18.2898 102.879 19.2125 102.879 20.7758H102.879C102.879 22.3453 102.166 23.2609 100.967 23.2609C99.7681 23.2609 99.0552 22.3453 99.0552 20.7758C99.0552 19.2195 99.7681 18.2898 100.967 18.2898Z" fill="white"/>
<path d="M105.607 17.1538H107.019V18.3866H107.053C107.25 17.593 107.973 17.0468 108.787 17.0781C108.957 17.0775 109.127 17.0961 109.294 17.1335V18.5241C109.078 18.4581 108.854 18.4277 108.629 18.4343C108.194 18.4166 107.773 18.5908 107.476 18.9111C107.18 19.2315 107.038 19.6661 107.087 20.1007V24.3968H105.607L105.607 17.1538Z" fill="white"/>
<path fill-rule="evenodd" clip-rule="evenodd" d="M113.011 24.4867C114.641 24.4867 115.916 23.5843 116.115 22.2695L114.71 22.2695C114.44 22.9416 113.763 23.3559 113.045 23.2883C112.507 23.3082 111.986 23.0947 111.615 22.7022C111.244 22.3097 111.058 21.7759 111.106 21.2367V21.1469H116.197V20.6375C116.197 18.4414 114.943 17.0648 112.949 17.0648C110.921 17.0648 109.612 18.5383 109.612 20.8101C109.612 23.075 110.914 24.4867 113.011 24.4867ZM111.113 20.1078H111.113L111.113 20.1078C111.113 20.1078 111.113 20.1078 111.113 20.1078ZM114.717 20.1078H111.113C111.112 19.6188 111.305 19.1495 111.65 18.8043C111.994 18.4591 112.462 18.2666 112.949 18.2695C113.431 18.2591 113.897 18.4515 114.232 18.8005C114.568 19.1494 114.744 19.6233 114.717 20.1078Z" fill="white"/>
<path fill-rule="evenodd" clip-rule="evenodd" d="M31.7928 7.63909C31.3598 7.17963 30.7445 6.9395 30.1164 6.98479H28.4004V11.7583H30.1164C31.5315 11.7583 32.3517 10.8817 32.3517 9.35667C32.4309 8.72891 32.2258 8.09855 31.7928 7.63909ZM30.0339 11.0832H29.1382V7.65936H30.0339C30.4805 7.63446 30.9147 7.81137 31.2179 8.1417C31.521 8.47203 31.6614 8.92121 31.6006 9.36639C31.6662 9.81343 31.5278 10.2663 31.2239 10.5994C30.92 10.9324 30.4829 11.1102 30.0339 11.0832Z" fill="white"/>
<path fill-rule="evenodd" clip-rule="evenodd" d="M33.9804 8.34293C33.4319 8.68495 33.1238 9.30984 33.1853 9.95553C33.1226 10.6019 33.4305 11.228 33.9795 11.5708C34.5285 11.9135 35.2235 11.9135 35.7725 11.5708C36.3215 11.228 36.6293 10.6019 36.5667 9.95553C36.6282 9.30984 36.32 8.68495 35.7715 8.34293C35.223 8.00092 34.529 8.00092 33.9804 8.34293ZM34.8771 8.71803C35.4898 8.71803 35.8389 9.17467 35.8389 9.95553H35.8389C35.8389 10.7395 35.4898 11.1958 34.8771 11.1958C34.2622 11.1958 33.9162 10.7426 33.9162 9.95554C33.9162 9.17467 34.2621 8.71803 34.8771 8.71803Z" fill="white"/>
<path d="M41.0616 11.7582H40.3277L39.5867 9.1051H39.5307L38.7928 11.7582H38.0659L37.0776 8.15588H37.7953L38.4375 10.9047H38.4904L39.2275 8.15588H39.9063L40.6433 10.9047H40.6993L41.3384 8.15588H42.046L41.0616 11.7582Z" fill="white"/>
<path d="M42.877 8.15587H43.5581V8.72813H43.6109C43.7948 8.30679 44.2244 8.04906 44.6808 8.08633C45.0342 8.05964 45.3804 8.19584 45.6218 8.45649C45.8632 8.71714 45.9736 9.07395 45.9217 9.42617V11.7582H45.2142V9.6047C45.2142 9.02579 44.9638 8.7379 44.4405 8.7379C44.2009 8.72668 43.9683 8.8212 43.8037 8.99666C43.6392 9.17213 43.5591 9.41105 43.5845 9.65079V11.7582H42.877L42.877 8.15587Z" fill="white"/>
<path d="M47.0492 6.74963H47.7567V11.7582H47.0492V6.74963Z" fill="white"/>
<path fill-rule="evenodd" clip-rule="evenodd" d="M49.5356 8.34293C48.9871 8.68495 48.679 9.30984 48.7404 9.95553C48.6778 10.6019 48.9857 11.228 49.5347 11.5708C50.0837 11.9135 50.7787 11.9135 51.3277 11.5708C51.8767 11.228 52.1845 10.6019 52.1219 9.95553C52.1833 9.30984 51.8752 8.68495 51.3267 8.34293C50.7782 8.00092 50.0841 8.00092 49.5356 8.34293ZM50.4323 8.71803C51.045 8.71803 51.3941 9.17467 51.3941 9.95553H51.3941C51.3941 10.7395 51.045 11.1958 50.4323 11.1958C49.8173 11.1958 49.4713 10.7426 49.4713 9.95554C49.4713 9.17467 49.8173 8.71803 50.4323 8.71803Z" fill="white"/>
<path fill-rule="evenodd" clip-rule="evenodd" d="M54.2001 9.66415C53.3472 9.71728 52.8667 10.0911 52.8667 10.7395C52.8679 11.047 52.9985 11.3396 53.2262 11.545C53.4539 11.7504 53.7574 11.8495 54.0617 11.8176C54.4959 11.8378 54.9073 11.6218 55.1386 11.252H55.1946V11.7583H55.8757V9.29697C55.8757 8.53603 55.3688 8.08643 54.4699 8.08643C53.6567 8.08643 53.0774 8.4833 53.0051 9.10205H53.6901C53.7686 8.84736 54.0423 8.70166 54.4373 8.70166C54.9209 8.70166 55.1713 8.9165 55.1713 9.29697V9.60791L54.2001 9.66415ZM55.1713 10.1306V10.4317C55.1558 10.6613 55.0482 10.8748 54.8732 11.0232C54.6982 11.1717 54.4708 11.2424 54.2429 11.2192C53.858 11.2192 53.5781 11.0306 53.5781 10.7063C53.5781 10.3888 53.802 10.22 54.2958 10.1868L55.1713 10.1306Z" fill="white"/>
<path fill-rule="evenodd" clip-rule="evenodd" d="M58.2938 8.09613C57.388 8.09613 56.8057 8.81723 56.8057 9.95551C56.8057 11.0965 57.3818 11.8176 58.2938 11.8176C58.7562 11.8347 59.1899 11.5926 59.4197 11.1891H59.4757V11.7582H60.1537V6.74963H59.4461V8.72813H59.3932C59.1796 8.32121 58.7512 8.07495 58.2938 8.09613ZM58.4945 11.1793C57.895 11.1793 57.5366 10.7196 57.5366 9.95551H57.5365C57.5365 9.19769 57.8988 8.7348 58.4945 8.7348C59.0869 8.7348 59.4594 9.20785 59.4594 9.95863C59.4594 10.7129 59.0908 11.1793 58.4945 11.1793Z" fill="white"/>
<path fill-rule="evenodd" clip-rule="evenodd" d="M63.8761 8.34282C63.3275 8.68483 63.0193 9.30974 63.0808 9.95547C63.0182 10.6019 63.3261 11.228 63.8751 11.5707C64.4242 11.9134 65.1192 11.9134 65.6682 11.5707C66.2172 11.228 66.5251 10.6019 66.4626 9.95547C66.524 9.30974 66.2158 8.68483 65.6673 8.34282C65.1187 8.0008 64.4246 8.0008 63.8761 8.34282ZM64.7726 8.71798C65.3853 8.71798 65.7344 9.17462 65.7344 9.95547H65.7344C65.7344 10.7395 65.3853 11.1957 64.7726 11.1957C64.1576 11.1957 63.8116 10.7426 63.8116 9.95548C63.8116 9.17462 64.1576 8.71798 64.7726 8.71798Z" fill="white"/>
<path d="M67.4121 8.15587H68.0932V8.72813H68.1461C68.33 8.30679 68.7596 8.04906 69.216 8.08633C69.5693 8.05964 69.9156 8.19584 70.157 8.45649C70.3984 8.71714 70.5087 9.07395 70.4569 9.42617V11.7582H69.7493V9.6047C69.7493 9.02579 69.499 8.7379 68.9757 8.7379C68.736 8.72668 68.5034 8.8212 68.3389 8.99666C68.1743 9.17213 68.0943 9.41105 68.1196 9.65079V11.7582H67.4121V8.15587Z" fill="white"/>
<path d="M74.4547 7.25903V8.17231H75.2314V8.77115H74.4547V10.6235C74.4547 11.0008 74.6094 11.1661 74.9616 11.1661C75.0518 11.1658 75.1419 11.1603 75.2314 11.1497V11.7418C75.1044 11.7647 74.9757 11.7768 74.8466 11.7782C74.0597 11.7782 73.7464 11.5 73.7464 10.8055V8.77111H73.1772V8.17228H73.7464V7.25903H74.4547Z" fill="white"/>
<path d="M76.1978 6.74963H76.8991V8.73479H76.9551C77.1478 8.30977 77.5849 8.0517 78.0482 8.08948C78.3996 8.07027 78.7411 8.20948 78.9799 8.46918C79.2187 8.72888 79.3298 9.08204 79.2829 9.43245V11.7582H78.5747V9.60783C78.5747 9.03244 78.3079 8.74103 77.808 8.74103C77.5619 8.72075 77.3194 8.81067 77.1453 8.98675C76.9713 9.16283 76.8834 9.40712 76.9053 9.65431V11.7582H76.1978L76.1978 6.74963Z" fill="white"/>
<path fill-rule="evenodd" clip-rule="evenodd" d="M81.855 11.8278C82.5557 11.9041 83.2101 11.4651 83.4085 10.7856L82.7274 10.7856C82.5576 11.0915 82.2206 11.264 81.8744 11.2223C81.6075 11.2253 81.3517 11.1149 81.1699 10.9185C80.9881 10.722 80.8972 10.4576 80.9197 10.1903V10.1504H83.4513V9.90236C83.4513 8.77116 82.8495 8.08636 81.8519 8.08636C81.3726 8.08226 80.9152 8.28731 80.598 8.64839C80.2809 9.00948 80.1353 9.49107 80.1989 9.9684C80.1335 10.4444 80.2797 10.9252 80.5986 11.2833C80.9175 11.6413 81.377 11.8404 81.855 11.8278ZM82.7305 9.62464H80.9197C80.9164 9.37624 81.0132 9.13706 81.188 8.96136C81.3628 8.78565 81.6008 8.68832 81.848 8.69144C82.0919 8.68583 82.3268 8.78397 82.4949 8.96168C82.663 9.1394 82.7485 9.38016 82.7305 9.62464Z" fill="white"/>
</svg>
