<svg width="121" height="29" viewBox="0 0 121 29" fill="none" xmlns="http://www.w3.org/2000/svg">
<path d="M32.793 23V11.9258H32.8984L40.8086 23H43.7383V6.08984H40.3516V17.1055H40.2578L32.3594 6.08984H29.4062V23H32.793ZM52.0352 23.2695C55.832 23.2695 58.2578 20.8438 58.2578 16.707C58.2578 12.6289 55.7969 10.168 52.0352 10.168C48.2734 10.168 45.8125 12.6406 45.8125 16.707C45.8125 20.832 48.2383 23.2695 52.0352 23.2695ZM52.0352 20.6562C50.3477 20.6562 49.2812 19.2383 49.2812 16.7188C49.2812 14.2227 50.3711 12.7812 52.0352 12.7812C53.6992 12.7812 54.7773 14.2227 54.7773 16.7188C54.7773 19.2383 53.7109 20.6562 52.0352 20.6562ZM60.9414 7.54297V10.4375H59.1719V13.0156H60.9414V19.6133C60.9414 22.0625 62.0898 23.0469 65.043 23.0469C65.7344 23.0469 66.3203 22.9883 66.6719 22.9062V20.3867C66.4609 20.4219 66.1445 20.4453 65.8398 20.4453C64.832 20.4453 64.3633 19.9883 64.3633 19.0273V13.0156H66.6836V10.4375H64.3633V7.54297H60.9414ZM73.293 20.7266C72.1328 20.7266 71.3594 20.1406 71.3594 19.2031C71.3594 18.3125 72.0859 17.7383 73.3633 17.6445L76.0117 17.4805V18.3945C76.0117 19.7539 74.7812 20.7266 73.293 20.7266ZM72.168 23.1992C73.7383 23.1992 75.2969 22.4141 76 21.0781H76.0703V23H79.375V14.3633C79.375 11.832 77.2773 10.168 74.0547 10.168C70.7266 10.168 68.6523 11.8438 68.5234 14.2812H71.6523C71.8164 13.3555 72.625 12.7227 73.9023 12.7227C75.1914 12.7227 76.0117 13.4023 76.0117 14.5742V15.4062L72.8477 15.5938C69.7188 15.7812 67.9609 17.1055 67.9609 19.3906C67.9609 21.6523 69.7773 23.1992 72.168 23.1992ZM89.0547 23.1992C92.2188 23.1992 94.1523 20.7617 94.1523 16.7188C94.1523 12.6641 92.207 10.2383 89.043 10.2383C87.25 10.2383 85.8555 11.1289 85.1641 12.6172H85.0938V6.08984H81.6719V23H85.0469V20.8438H85.1172C85.8086 22.3086 87.2148 23.1992 89.0547 23.1992ZM87.8711 12.9805C89.5703 12.9805 90.6484 14.4336 90.6484 16.7188C90.6484 19.0156 89.582 20.4453 87.8711 20.4453C86.207 20.4453 85.082 18.9922 85.082 16.7188C85.082 14.4688 86.2188 12.9805 87.8711 12.9805ZM96.0156 23H99.4375V6.08984H96.0156V23ZM107.383 12.6992C108.906 12.6992 109.949 13.8008 110.02 15.4062H104.688C104.805 13.8359 105.883 12.6992 107.383 12.6992ZM110.066 19.1562C109.75 20.1172 108.789 20.7383 107.535 20.7383C105.789 20.7383 104.652 19.5078 104.652 17.7148V17.5039H113.312V16.4609C113.312 12.6406 111.004 10.168 107.348 10.168C103.633 10.168 101.289 12.7695 101.289 16.7773C101.289 20.7969 103.609 23.2695 107.477 23.2695C110.582 23.2695 112.832 21.6172 113.207 19.1562H110.066ZM117.309 23.1406C118.352 23.1406 119.195 22.2969 119.195 21.2539C119.195 20.1992 118.352 19.3672 117.309 19.3672C116.254 19.3672 115.422 20.1992 115.422 21.2539C115.422 22.2969 116.254 23.1406 117.309 23.1406Z" fill="#121A26"/>
<circle cx="4" cy="9" r="4" fill="#2969FF"/>
<circle cx="14" cy="9" r="4" fill="#2969FF"/>
<circle cx="4" cy="19" r="4" fill="#2969FF"/>
<circle cx="14" cy="19" r="4" fill="#2969FF"/>
</svg>
